<svg width="274" height="274" viewBox="0 0 274 274" fill="none" xmlns="http://www.w3.org/2000/svg">
<path d="M170.939 137.001L265.939 42.0006C270.447 37.4999 272.983 31.3924 272.989 25.0218C272.995 18.6512 270.469 12.5393 265.969 8.03062C261.468 3.52194 255.36 0.985828 248.99 0.980202C242.619 0.974576 236.507 3.49989 231.999 8.00062L136.999 103.001L41.9987 8.00062C37.49 3.49194 31.3749 0.958984 24.9987 0.958984C18.6224 0.958984 12.5073 3.49194 7.99866 8.00062C3.48998 12.5093 0.957031 18.6244 0.957031 25.0006C0.957031 31.3769 3.48998 37.4919 7.99866 42.0006L102.999 137.001L7.99866 232.001C3.48998 236.509 0.957031 242.624 0.957031 249.001C0.957031 255.377 3.48998 261.492 7.99866 266.001C12.5073 270.509 18.6224 273.042 24.9987 273.042C31.3749 273.042 37.49 270.509 41.9987 266.001L136.999 171.001L231.999 266.001C236.507 270.509 242.622 273.042 248.999 273.042C255.375 273.042 261.49 270.509 265.999 266.001C270.507 261.492 273.04 255.377 273.04 249.001C273.04 242.624 270.507 236.509 265.999 232.001L170.939 137.001Z" fill="white"/>
</svg>
