<svg width="636" height="522" viewBox="0 0 636 522" fill="none" xmlns="http://www.w3.org/2000/svg">
<path d="M549.172 401.811C597.122 358.467 614.158 299.232 587.223 269.505C560.287 239.779 499.58 250.818 451.63 294.162C403.68 337.505 386.644 396.741 413.579 426.467C440.515 456.194 501.222 445.155 549.172 401.811Z" fill="#649DD2" fill-opacity="0.1"/>
<path d="M409.658 520.466C403.191 507.124 400.902 492.091 402.027 477.372C403.249 462.747 407.569 448.548 414.701 435.716C421.625 423.332 430.408 412.081 440.745 402.355C451.605 391.965 463.851 383.144 476.735 375.435C490.341 367.295 504.637 360.377 519.099 353.904C520.902 353.097 522.707 352.297 524.515 351.503C525.701 350.981 524.675 349.243 523.496 349.762C508.75 356.246 494.129 363.08 480.147 371.099C466.79 378.759 454.01 387.523 442.593 397.878C431.835 407.484 422.566 418.635 415.091 430.963C407.438 443.649 402.475 457.77 400.511 472.45C398.625 487.235 400.083 502.61 405.695 516.482C406.379 518.173 407.119 519.84 407.914 521.483C408.48 522.651 410.222 521.63 409.658 520.466Z" fill="#506C87" fill-opacity="0.51"/>
<path d="M465.351 380.577C464.683 369.583 465.512 358.548 467.813 347.776C470.107 336.997 473.832 326.573 478.887 316.779C481.733 311.281 484.994 306.007 488.643 301.004C489.409 299.954 487.658 298.946 486.9 299.986C480.344 309.005 475.038 318.866 471.125 329.303C467.203 339.741 464.687 350.653 463.642 361.753C463.052 368.011 462.949 374.304 463.332 380.577C463.41 381.867 465.43 381.876 465.351 380.577Z" fill="#506C87" fill-opacity="0.51"/>
<path d="M249.328 364.096C311.74 307.68 333.914 230.579 298.855 191.887C263.795 153.194 184.779 167.563 122.367 223.979C59.9545 280.396 37.7805 357.497 72.8398 396.189C107.899 434.882 186.915 420.513 249.328 364.096Z" fill="#649DD2" fill-opacity="0.1"/>
<path d="M67.7378 518.538C59.3212 501.173 56.3408 481.606 57.8061 462.448C59.2622 443.412 65.1479 424.945 74.3019 408.228C83.1666 392.039 94.8832 377.548 108.202 364.805C122.337 351.281 138.276 339.8 155.046 329.766C172.755 319.17 191.363 310.166 210.188 301.741C212.534 300.691 214.883 299.649 217.236 298.615C218.781 297.936 217.445 295.674 215.91 296.349C196.717 304.79 177.686 313.685 159.487 324.121C142.101 334.092 125.468 345.499 110.607 358.978C96.7439 371.552 84.3891 385.936 74.8094 402.041C64.8484 418.554 58.3891 436.934 55.832 456.042C53.3777 475.285 55.2752 495.297 62.5794 513.353C63.47 515.555 64.4332 517.725 65.4687 519.863C66.2054 521.383 68.4722 520.054 67.7378 518.538Z" fill="#506C87" fill-opacity="0.51"/>
<path d="M140.223 336.459C139.354 322.149 140.433 307.786 143.428 293.765C146.415 279.735 151.262 266.167 157.842 253.419C161.547 246.262 165.792 239.398 170.541 232.886C171.537 231.519 169.258 230.208 168.272 231.561C159.739 243.3 152.832 256.136 147.739 269.72C142.634 283.307 139.359 297.51 137.999 311.958C137.232 320.103 137.096 328.294 137.595 336.459C137.698 338.138 140.326 338.149 140.223 336.459Z" fill="#506C87" fill-opacity="0.51"/>
<path d="M371.069 148.775C355.313 148.775 339.617 137.958 326.87 118.317C315.662 101.047 308.699 79.5801 308.699 62.2948C308.699 54.1141 310.312 46.0136 313.447 38.4556C316.581 30.8977 321.175 24.0303 326.967 18.2457C332.758 12.4611 339.634 7.87251 347.201 4.74191C354.768 1.6113 362.878 0 371.069 0C379.259 0 387.37 1.6113 394.937 4.74191C402.504 7.87251 409.379 12.4611 415.171 18.2457C420.962 24.0303 425.556 30.8977 428.691 38.4556C431.825 46.0136 433.438 54.1141 433.438 62.2948C433.438 79.5801 426.476 101.047 415.268 118.317C402.521 137.958 386.824 148.775 371.069 148.775ZM371.069 1.46576C354.922 1.48396 339.442 7.89856 328.025 19.3023C316.607 30.706 310.185 46.1675 310.167 62.2948C310.167 95.8663 337.451 147.309 371.069 147.309C404.687 147.309 431.971 95.8663 431.971 62.2948C431.953 46.1675 425.53 30.706 414.113 19.3023C402.695 7.89856 387.215 1.48396 371.069 1.46576Z" fill="#24435F"/>
<path d="M376.948 161.966H365.188C364.639 161.966 364.096 161.843 363.601 161.606C363.106 161.368 362.67 161.023 362.327 160.595C361.983 160.167 361.74 159.667 361.615 159.133C361.491 158.598 361.488 158.043 361.607 157.507L363.876 147.309H378.261L380.529 157.507C380.649 158.043 380.646 158.598 380.521 159.133C380.397 159.667 380.154 160.167 379.81 160.595C379.466 161.023 379.03 161.368 378.535 161.606C378.04 161.843 377.498 161.966 376.948 161.966ZM365.053 148.774L363.039 157.825C362.968 158.146 362.969 158.48 363.044 158.8C363.119 159.121 363.265 159.421 363.471 159.678C363.677 159.934 363.939 160.142 364.236 160.284C364.533 160.426 364.859 160.5 365.188 160.5H376.948C377.278 160.5 377.603 160.426 377.9 160.284C378.198 160.142 378.459 159.934 378.665 159.678C378.872 159.421 379.017 159.121 379.092 158.8C379.167 158.48 379.169 158.146 379.097 157.825L377.083 148.774H365.053Z" fill="#24435F"/>
<path d="M342.041 18.2199C332.358 24.0924 325.395 33.5532 322.673 44.5362C321.92 47.5907 321.52 50.7214 321.48 53.8669C321.49 54.1519 321.611 54.4219 321.816 54.62C322.021 54.8181 322.296 54.9288 322.581 54.9288C322.867 54.9288 323.141 54.8181 323.346 54.62C323.552 54.4219 323.672 54.1519 323.682 53.8669C323.905 43.1801 328.341 33.0127 336.024 25.5723C338.18 23.4837 340.572 21.6534 343.151 20.1183C343.393 19.966 343.566 19.726 343.634 19.4489C343.701 19.1717 343.659 18.8791 343.514 18.6329C343.37 18.3866 343.136 18.2058 342.861 18.1288C342.586 18.0517 342.292 18.0844 342.041 18.2199Z" fill="#24435F"/>
<path d="M360.875 150.156C374.173 149.477 389.305 149.114 399.668 158.911C403.991 162.997 406.718 168.473 406.553 174.493C406.374 181.044 403.039 187.18 398.906 192.102C390.009 202.696 376.96 209.32 364.446 214.659C351.146 220.333 337.29 224.765 324.512 231.612C313.292 237.624 302.833 245.739 296.055 256.672C292.721 261.971 290.509 267.896 289.557 274.082C288.683 280.283 288.998 286.593 290.484 292.677C293.469 305.146 300.818 316.166 310.61 324.354C320.52 332.641 332.525 338.159 344.962 341.456C359.727 345.37 375.111 346.256 390.324 346.344C406.036 346.436 421.761 345.668 437.462 346.548C441.281 346.762 445.093 347.077 448.893 347.517C450.298 347.68 450.286 345.48 448.893 345.319C433.208 343.503 417.399 343.919 401.643 344.097C386.197 344.271 370.62 344.218 355.365 341.494C342.212 339.145 329.316 334.744 318.161 327.278C307.475 320.127 298.767 310.1 294.36 297.933C290.056 286.048 290.101 272.895 295.865 261.501C301.636 250.093 311.703 241.463 322.642 235.165C335.266 227.898 349.167 223.35 362.578 217.808C375.245 212.574 388.201 206.333 397.931 196.438C402.437 191.856 406.297 186.279 407.949 180.004C408.755 177.069 408.95 174 408.52 170.987C408.091 167.974 407.046 165.081 405.452 162.487C402.262 157.61 397.709 153.776 392.357 151.461C385.898 148.555 378.731 147.717 371.708 147.646C368.095 147.609 364.483 147.773 360.875 147.958C359.465 148.03 359.457 150.229 360.875 150.156Z" fill="#24435F"/>
<path d="M606.951 521.811H3.87911C3.64596 521.811 3.42235 521.734 3.25749 521.597C3.09262 521.459 3 521.273 3 521.079C3 520.884 3.09262 520.698 3.25749 520.56C3.42235 520.423 3.64596 520.346 3.87911 520.346H606.951C607.184 520.346 607.408 520.423 607.573 520.56C607.737 520.698 607.83 520.884 607.83 521.079C607.83 521.273 607.737 521.459 607.573 521.597C607.408 521.734 607.184 521.811 606.951 521.811Z" fill="#506C87" fill-opacity="0.51"/>
<path d="M26.4347 55.9091V85H24.7017L6.15057 59.1335H5.98011V85H4.20455V55.9091H5.9517L24.5028 81.804H24.6733V55.9091H26.4347ZM54.5688 70.4545C54.5688 73.4564 54.0479 76.0795 53.0063 78.3239C51.9646 80.5587 50.5157 82.2964 48.6597 83.5369C46.8131 84.7775 44.6824 85.3977 42.2676 85.3977C39.8434 85.3977 37.7032 84.7775 35.8472 83.5369C34.0006 82.2869 32.5564 80.5445 31.5148 78.3097C30.4731 76.0653 29.9523 73.447 29.9523 70.4545C29.9523 67.4527 30.4731 64.8343 31.5148 62.5994C32.5659 60.3646 34.0148 58.6269 35.8614 57.3864C37.708 56.1364 39.8434 55.5114 42.2676 55.5114C44.6824 55.5114 46.8131 56.1316 48.6597 57.3722C50.5157 58.6127 51.9646 60.3551 53.0063 62.5994C54.0479 64.8343 54.5688 67.4527 54.5688 70.4545ZM52.8358 70.4545C52.8358 67.7557 52.3813 65.4167 51.4722 63.4375C50.5725 61.4583 49.3273 59.929 47.7364 58.8494C46.1455 57.7604 44.3225 57.2159 42.2676 57.2159C40.2127 57.2159 38.3898 57.7557 36.7989 58.8352C35.208 59.9053 33.958 61.4347 33.0489 63.4233C32.1492 65.4025 31.6994 67.7462 31.6994 70.4545C31.6994 73.1345 32.1445 75.4687 33.0347 77.4574C33.9343 79.4366 35.1795 80.9706 36.7705 82.0597C38.3614 83.1487 40.1938 83.6932 42.2676 83.6932C44.3225 83.6932 46.1455 83.1534 47.7364 82.0739C49.3273 80.9848 50.5725 79.4508 51.4722 77.4716C52.3813 75.4924 52.8358 73.1534 52.8358 70.4545ZM88.1878 55.9091V85H86.4548L67.9037 59.1335H67.7332V85H65.9577V55.9091H67.7048L86.256 81.804H86.4264V55.9091H88.1878ZM93.1827 85V55.9091H109.418V57.5568H94.9582V69.6165H108.069V71.2642H94.9582V85H93.1827ZM111.288 57.5568V55.9091H131.672V57.5568H122.368V85H120.592V57.5568H111.288ZM145.026 67.8835L143.421 68.3097C143.165 67.5142 142.801 66.8277 142.327 66.25C141.854 65.6723 141.257 65.2273 140.537 64.9148C139.827 64.5928 138.975 64.4318 137.981 64.4318C136.38 64.4318 135.069 64.8295 134.046 65.625C133.033 66.4205 132.526 67.4574 132.526 68.7358C132.526 69.7775 132.872 70.6392 133.563 71.321C134.254 71.9934 135.31 72.5047 136.731 72.8551L140.083 73.6932C141.806 74.1193 143.104 74.8106 143.975 75.767C144.846 76.714 145.282 77.893 145.282 79.304C145.282 80.5066 144.955 81.572 144.302 82.5C143.648 83.428 142.744 84.1525 141.589 84.6733C140.443 85.1941 139.108 85.4545 137.583 85.4545C135.547 85.4545 133.876 84.9811 132.569 84.0341C131.262 83.0777 130.424 81.7093 130.055 79.929L131.716 79.5028C132.029 80.9233 132.678 82.0076 133.662 82.7557C134.657 83.4943 135.959 83.8636 137.569 83.8636C139.349 83.8636 140.784 83.4422 141.873 82.5994C142.971 81.7566 143.52 80.6771 143.52 79.3608C143.52 78.357 143.198 77.5095 142.555 76.8182C141.911 76.1269 140.935 75.6203 139.628 75.2983L136.148 74.446C134.368 74.0104 133.033 73.3144 132.143 72.358C131.252 71.392 130.807 70.2036 130.807 68.7926C130.807 67.6184 131.115 66.5862 131.731 65.696C132.346 64.8059 133.194 64.1098 134.273 63.608C135.353 63.1061 136.589 62.8551 137.981 62.8551C139.827 62.8551 141.333 63.2907 142.498 64.1619C143.662 65.0331 144.505 66.2737 145.026 67.8835ZM156.34 85V55.9091H172.576V57.5568H158.116V69.6165H171.227V71.2642H158.116V85H156.34ZM199.517 70.4545C199.517 73.4564 198.996 76.0795 197.955 78.3239C196.913 80.5587 195.464 82.2964 193.608 83.5369C191.762 84.7775 189.631 85.3977 187.216 85.3977C184.792 85.3977 182.652 84.7775 180.796 83.5369C178.949 82.2869 177.505 80.5445 176.463 78.3097C175.422 76.0653 174.901 73.447 174.901 70.4545C174.901 67.4527 175.422 64.8343 176.463 62.5994C177.514 60.3646 178.963 58.6269 180.81 57.3864C182.656 56.1364 184.792 55.5114 187.216 55.5114C189.631 55.5114 191.762 56.1316 193.608 57.3722C195.464 58.6127 196.913 60.3551 197.955 62.5994C198.996 64.8343 199.517 67.4527 199.517 70.4545ZM197.784 70.4545C197.784 67.7557 197.33 65.4167 196.421 63.4375C195.521 61.4583 194.276 59.929 192.685 58.8494C191.094 57.7604 189.271 57.2159 187.216 57.2159C185.161 57.2159 183.338 57.7557 181.747 58.8352C180.156 59.9053 178.906 61.4347 177.997 63.4233C177.098 65.4025 176.648 67.7462 176.648 70.4545C176.648 73.1345 177.093 75.4687 177.983 77.4574C178.883 79.4366 180.128 80.9706 181.719 82.0597C183.31 83.1487 185.142 83.6932 187.216 83.6932C189.271 83.6932 191.094 83.1534 192.685 82.0739C194.276 80.9848 195.521 79.4508 196.421 77.4716C197.33 75.4924 197.784 73.1534 197.784 70.4545ZM222.758 55.9091H224.533V75.1705C224.533 77.1496 224.074 78.9157 223.156 80.4688C222.237 82.0123 220.968 83.2339 219.349 84.1335C217.739 85.0237 215.888 85.4688 213.795 85.4688C211.711 85.4688 209.86 85.0237 208.241 84.1335C206.621 83.2339 205.348 82.0076 204.42 80.4545C203.501 78.9015 203.047 77.1402 203.056 75.1705V55.9091H204.832V75.071C204.832 76.7472 205.21 78.2386 205.968 79.5455C206.735 80.8523 207.791 81.8845 209.136 82.642C210.48 83.3902 212.033 83.7642 213.795 83.7642C215.556 83.7642 217.109 83.3902 218.454 82.642C219.799 81.8845 220.85 80.8523 221.607 79.5455C222.374 78.2386 222.758 76.7472 222.758 75.071V55.9091ZM251.769 55.9091V85H250.036L231.485 59.1335H231.314V85H229.539V55.9091H231.286L249.837 81.804H250.008V55.9091H251.769ZM264.832 85H256.764V55.9091H265.457C268.184 55.9091 270.519 56.4867 272.46 57.642C274.401 58.7973 275.888 60.4545 276.92 62.6136C277.962 64.7633 278.478 67.3437 278.468 70.3551C278.459 73.4328 277.919 76.0653 276.849 78.2528C275.779 80.4309 274.231 82.1023 272.204 83.267C270.178 84.4223 267.72 85 264.832 85ZM258.539 83.3523H264.761C267.356 83.3523 269.543 82.8362 271.324 81.804C273.104 80.7623 274.449 79.2708 275.358 77.3295C276.276 75.3883 276.731 73.0634 276.721 70.3551C276.721 67.6847 276.281 65.3977 275.4 63.4943C274.52 61.5814 273.236 60.1136 271.551 59.0909C269.875 58.0682 267.82 57.5568 265.386 57.5568H258.539V83.3523ZM291.935 55.9091L291.835 76.5199H290.131L290.031 55.9091H291.935ZM290.983 85.1847C290.557 85.1847 290.192 85.0379 289.889 84.7443C289.596 84.4413 289.449 84.0767 289.449 83.6506C289.449 83.2339 289.601 82.8741 289.904 82.571C290.207 82.268 290.566 82.1165 290.983 82.1165C291.4 82.1165 291.76 82.268 292.063 82.571C292.366 82.8741 292.517 83.2339 292.517 83.6506C292.517 83.9347 292.446 84.1951 292.304 84.4318C292.172 84.6591 291.987 84.8437 291.75 84.9858C291.523 85.1184 291.267 85.1847 290.983 85.1847Z" fill="#649DD2" fill-opacity="0.4"/>
<path d="M372.377 28.6934L343.984 75.1136L372.474 91.631L372.377 28.6934Z" fill="#385674"/>
<path d="M399.779 75.1136L371.289 28.6934L371.386 91.631L399.779 75.1136Z" fill="#12202E"/>
<path d="M343.984 74.8684L372.44 61.9434L372.474 91.6309L343.984 74.8684Z" fill="#1B3C5A"/>
<path d="M399.779 74.8221L372.477 61.9434L372.536 90.4434L399.779 74.8221Z" fill="#12273A"/>
<path d="M399.779 79.7559L371.289 96.2258V118.943L399.779 79.7559Z" fill="#12202E"/>
<path d="M343.984 79.7559L371.287 96.2258V118.943L343.984 79.7559Z" fill="#385674"/>
</svg>
