<svg width="753" height="442" viewBox="0 0 753 442" fill="none" xmlns="http://www.w3.org/2000/svg">
<path d="M437.745 419.935C437.877 426.236 437.008 432.518 435.168 438.546C435.104 438.765 435.027 438.984 434.949 439.203H397.031C397.573 436.534 398.434 433.939 399.594 431.475C402.75 424.778 407.902 419.046 412.989 413.353C419.996 405.509 426.835 397.73 427.917 387.529C430.694 391.763 432.911 396.339 434.512 401.143C432.552 401.869 430.754 402.972 429.218 404.389C428.793 404.788 428.342 405.368 428.561 405.922C428.767 406.385 429.334 406.54 429.836 406.643C431.047 406.875 432.258 407.107 433.468 407.326C434.421 407.519 435.387 407.699 436.353 407.879C437.202 411.844 437.668 415.881 437.745 419.935Z" fill="#649DD2" fill-opacity="0.1"/>
<path d="M469.596 415.761C463.517 419.458 459.653 425.176 456.497 431.578C453.751 432.204 451.216 433.535 449.143 435.442C448.705 435.841 448.254 436.42 448.486 436.974C448.679 437.438 449.259 437.593 449.761 437.696C450.959 437.927 452.183 438.159 453.38 438.378C453.265 438.649 453.149 438.932 453.033 439.203H412.848C414.672 436.742 416.692 434.434 418.888 432.299C419.365 431.822 419.854 431.372 420.357 430.908C425.479 426.278 431.361 422.566 437.744 419.934C447.8 415.73 458.797 414.29 469.596 415.761Z" fill="#649DD2" fill-opacity="0.1"/>
<path d="M419.548 439.203H383.767C383.572 436.337 383.589 433.462 383.819 430.599C384.594 421.738 387.281 413.15 391.694 405.428C396.108 397.706 402.144 391.032 409.385 385.867C407.531 392.475 408.484 399.043 410.416 405.638C410.145 405.728 409.875 405.805 409.63 405.908C407.671 406.634 405.872 407.737 404.337 409.154C403.912 409.553 403.461 410.133 403.68 410.687C403.873 411.15 404.452 411.305 404.955 411.408C406.166 411.64 407.376 411.872 408.574 412.091C409.54 412.284 410.506 412.464 411.472 412.657C411.923 412.735 412.374 412.825 412.824 412.915C412.889 413.069 412.927 413.211 412.992 413.353C415.259 419.6 417.732 425.898 418.891 432.299C419.178 433.905 419.376 435.526 419.483 437.155C419.522 437.837 419.548 438.52 419.548 439.203Z" fill="#649DD2" fill-opacity="0.1"/>
<path d="M264.228 383.532C264.612 401.737 262.099 419.888 256.785 437.305C256.599 437.937 256.376 438.57 256.153 439.203H146.598C148.164 431.491 150.65 423.994 154.003 416.875C163.12 397.524 178.005 380.964 192.705 364.516C212.948 341.853 232.709 319.377 235.835 289.904C243.859 302.137 250.263 315.359 254.888 329.238C249.226 331.336 244.03 334.521 239.593 338.616C238.365 339.77 237.062 341.444 237.695 343.044C238.29 344.384 239.928 344.831 241.379 345.128C244.877 345.798 248.375 346.468 251.873 347.101C254.627 347.659 257.418 348.18 260.209 348.701C262.662 360.156 264.008 371.82 264.228 383.532Z" fill="#649DD2" fill-opacity="0.1"/>
<path d="M356.253 371.476C338.689 382.156 327.525 398.678 318.408 417.173C310.474 418.981 303.15 422.83 297.159 428.337C295.894 429.491 294.591 431.165 295.261 432.765C295.82 434.105 297.494 434.552 298.945 434.849C302.406 435.519 305.941 436.189 309.402 436.822C309.067 437.603 308.732 438.422 308.398 439.203H192.293C197.564 432.095 203.4 425.425 209.746 419.257C211.123 417.88 212.537 416.578 213.988 415.238C228.789 401.862 245.783 391.137 264.226 383.533C293.28 371.387 325.051 367.224 356.253 371.476Z" fill="#649DD2" fill-opacity="0.1"/>
<path d="M211.646 439.203H108.268C107.703 430.924 107.753 422.615 108.417 414.344C112.548 363.251 140.346 314.576 182.285 285.104C176.926 304.194 179.68 323.173 185.262 342.226C184.48 342.486 183.699 342.709 182.992 343.007C177.33 345.104 172.134 348.29 167.697 352.385C166.469 353.538 165.167 355.213 165.799 356.813C166.357 358.153 168.032 358.599 169.483 358.897C172.981 359.567 176.479 360.237 179.94 360.869C182.731 361.427 185.522 361.948 188.313 362.507C189.616 362.73 190.918 362.99 192.22 363.251C192.406 363.697 192.518 364.107 192.704 364.516C199.254 382.564 206.399 400.761 209.748 419.256C210.577 423.898 211.148 428.581 211.46 433.286C211.571 435.258 211.646 437.23 211.646 439.203Z" fill="#649DD2" fill-opacity="0.1"/>
<path d="M660.927 383.532C661.311 401.737 658.799 419.888 653.485 437.305C653.298 437.937 653.075 438.57 652.852 439.203H543.297C544.863 431.491 547.349 423.994 550.702 416.875C559.819 397.524 574.705 380.964 589.404 364.516C609.648 341.853 629.408 319.377 632.534 289.904C640.558 302.137 646.962 315.359 651.587 329.238C645.925 331.336 640.729 334.521 636.292 338.616C635.064 339.77 633.762 341.444 634.394 343.044C634.99 344.384 636.627 344.831 638.078 345.128C641.576 345.798 645.074 346.468 648.573 347.101C651.326 347.659 654.117 348.18 656.908 348.701C659.361 360.156 660.707 371.82 660.927 383.532Z" fill="#649DD2" fill-opacity="0.1"/>
<path d="M752.953 371.476C735.388 382.156 724.224 398.678 715.107 417.173C707.173 418.981 699.849 422.83 693.858 428.337C692.593 429.491 691.291 431.165 691.96 432.765C692.519 434.105 694.193 434.552 695.644 434.849C699.105 435.519 702.64 436.189 706.101 436.822C705.766 437.603 705.431 438.422 705.097 439.203H588.992C594.263 432.095 600.099 425.425 606.445 419.257C607.822 417.88 609.236 416.578 610.687 415.238C625.488 401.862 642.482 391.137 660.925 383.533C689.979 371.387 721.75 367.224 752.953 371.476Z" fill="#649DD2" fill-opacity="0.1"/>
<path d="M608.345 439.203H504.967C504.403 430.924 504.453 422.615 505.116 414.344C509.247 363.251 537.045 314.576 578.984 285.104C573.625 304.194 576.379 323.173 581.961 342.226C581.18 342.486 580.398 342.709 579.691 343.007C574.029 345.104 568.834 348.29 564.397 352.385C563.168 353.538 561.866 355.213 562.499 356.813C563.057 358.153 564.731 358.599 566.183 358.897C569.681 359.567 573.179 360.237 576.639 360.869C579.43 361.427 582.221 361.948 585.012 362.507C586.315 362.73 587.617 362.99 588.92 363.251C589.106 363.697 589.217 364.107 589.403 364.516C595.953 382.564 603.098 400.761 606.447 419.256C607.276 423.898 607.848 428.581 608.159 433.286C608.271 435.258 608.345 437.23 608.345 439.203Z" fill="#649DD2" fill-opacity="0.1"/>
<path d="M432.449 82.4309C432.44 102.233 425.3 121.369 412.335 136.337C399.37 151.304 381.449 161.102 361.851 163.937C342.253 166.771 322.29 162.453 305.615 151.772C288.941 141.091 276.671 124.763 271.052 105.775C265.432 86.7871 266.839 66.4106 275.014 48.3753C283.19 30.3399 297.587 15.8522 315.571 7.56418C333.555 -0.723877 353.923 -2.25786 372.945 3.24303C391.968 8.74391 408.373 20.9117 419.157 37.519C417.918 38.6185 416.756 39.8019 415.68 41.0609C415.397 41.3829 415.113 41.7306 414.843 42.0655C414.443 42.555 414.07 43.0444 413.709 43.5467C413.284 44.1263 412.885 44.7188 412.499 45.3242C410.589 48.2907 409.13 51.5245 408.171 54.9196C410.673 51.9172 413.613 49.3078 416.891 47.1788C416.959 47.1326 417.033 47.0937 417.11 47.0629C417.432 46.8569 417.754 46.6507 418.088 46.4447C419.52 45.5722 421.004 44.7894 422.532 44.1005C422.661 44.049 422.789 43.9846 422.918 43.9331C429.201 55.7912 432.474 69.0113 432.449 82.4309Z" fill="#649DD2" fill-opacity="0.1"/>
<path d="M388.467 439.254C386.754 437.838 385.079 436.382 383.444 434.862C370.382 422.584 360.12 407.634 353.357 391.032C347.821 377.64 344.581 363.41 343.774 348.941C343.581 345.515 343.542 342.102 343.632 338.689C343.866 329.787 345.097 320.939 347.303 312.311C349.892 302.29 353.782 292.669 357.852 283.164C359.861 278.463 361.947 273.749 363.957 268.996C370.087 254.545 375.6 239.746 376.45 223.968C377.5 203.639 371.56 183.562 359.616 167.078C358.161 165.069 361.509 163.137 362.952 165.133C364.433 167.155 365.824 169.242 367.125 171.393C377.57 188.701 382.054 208.956 379.889 229.056C378.33 242.747 373.694 255.614 368.413 268.236C365.695 274.779 362.797 281.245 360.067 287.749C359.243 289.707 358.431 291.665 357.645 293.648C354.582 301.089 352.106 308.759 350.24 316.587C348.3 325.243 347.362 334.094 347.445 342.965C347.47 345.309 347.548 347.64 347.702 349.972C348.72 365.409 352.58 380.526 359.088 394.561C366.541 410.764 377.515 425.1 391.21 436.524C393.129 438.108 390.373 440.826 388.467 439.254Z" fill="#24435F"/>
<path d="M360.052 403.513C357.952 402.934 355.874 402.294 353.818 401.594C337.047 395.779 321.713 386.448 308.842 374.225C295.975 362.109 285.734 347.48 278.754 331.245C275.266 323.111 272.696 314.613 271.091 305.91C270.22 300.965 269.606 295.978 269.249 290.969C268.798 284.877 268.644 278.746 268.566 272.641C268.399 258.808 268.618 244.666 266.518 230.962C265.401 223.018 263.249 215.254 260.117 207.869C252.557 190.503 239.664 175.995 223.307 166.447C221.156 165.198 223.101 161.862 225.251 163.111C227.248 164.27 229.206 165.494 231.112 166.808C246.627 177.508 258.529 192.666 265.243 210.277C267.626 216.688 269.327 223.332 270.318 230.099C272.649 245.182 272.211 260.74 272.482 275.951C272.572 281.129 272.752 286.32 273.164 291.497C273.557 297.071 274.319 302.613 275.444 308.087C277.256 316.643 280.025 324.969 283.7 332.906C291.163 348.906 301.89 363.169 315.191 374.778C328.439 386.416 344.111 394.96 361.069 399.791C363.465 400.461 362.447 404.196 360.052 403.513Z" fill="#24435F"/>
<path d="M213.48 168.212C201.491 173.527 188.407 175.906 175.314 175.15C162.222 174.394 149.498 170.525 138.201 163.864C126.904 157.203 117.359 147.943 110.36 136.852C103.36 125.762 99.1075 113.162 97.9554 100.098C96.8033 87.034 98.7849 73.8838 103.736 61.7395C108.686 49.5953 116.463 38.8075 126.42 30.2724C136.377 21.7372 148.227 15.7009 160.985 12.6649C173.743 9.62897 187.042 9.68095 199.776 12.8166C199.403 13.3317 199.042 13.8727 198.694 14.4137C196.785 17.3802 195.326 20.614 194.367 24.0091C196.869 21.0067 199.808 18.3973 203.086 16.2684C203.155 16.2221 203.228 16.1832 203.305 16.1524C203.627 15.9464 203.949 15.7402 204.284 15.5342C204.825 15.1993 205.366 14.8902 205.92 14.5939C217.636 18.4576 228.336 24.9013 237.231 33.45C235.992 34.3004 234.808 35.2297 233.689 36.2321C232.45 37.3316 231.288 38.515 230.211 39.7741C229.928 40.0961 229.644 40.4437 229.374 40.7786C228.975 41.2681 228.601 41.7575 228.241 42.2598C228.202 42.3242 228.15 42.3757 228.112 42.4402C227.738 42.9554 227.378 43.4963 227.03 44.0373C225.12 47.0038 223.662 50.2376 222.702 53.6328C225.205 50.6303 228.144 48.0209 231.422 45.892C231.491 45.8457 231.564 45.8069 231.641 45.776C231.963 45.57 232.285 45.3639 232.62 45.1578C233.161 44.8229 233.702 44.5138 234.255 44.2175C235.17 43.7153 236.11 43.2515 237.063 42.8137C237.192 42.7622 237.321 42.6977 237.45 42.6462C239.485 41.7551 241.592 41.0356 243.748 40.4953C251.808 50.3149 257.492 61.8638 260.355 74.2411C263.218 86.6185 263.183 99.4899 260.254 111.852C257.324 124.214 251.578 135.732 243.465 145.508C235.352 155.284 225.09 163.054 213.48 168.212Z" fill="#649DD2" fill-opacity="0.1"/>
<path d="M168.691 45.1885L153.28 97.3756L185.074 105.957L168.691 45.1885Z" fill="#385674"/>
<path d="M207.174 82.9356L167.641 45.4707L184.023 106.239L207.174 82.9356Z" fill="#12202E"/>
<path d="M153.216 97.137L177.357 77.2876L185.074 105.955L153.216 97.137Z" fill="#1B3C5A"/>
<path d="M207.096 82.6528L177.391 77.2793L184.824 104.793L207.096 82.6528Z" fill="#12273A"/>
<path d="M208.374 87.4193L185.118 110.702L190.998 132.645L208.374 87.4193Z" fill="#12202E"/>
<path d="M154.48 101.859L185.115 110.702L190.995 132.645L154.48 101.859Z" fill="#385674"/>
<path d="M350.393 36L322 82.4202L350.49 98.9376L350.393 36Z" fill="#385674"/>
<path d="M377.794 82.4202L349.305 36L349.401 98.9376L377.794 82.4202Z" fill="#12202E"/>
<path d="M322 82.175L350.455 69.25L350.49 98.9375L322 82.175Z" fill="#1B3C5A"/>
<path d="M377.795 82.1288L350.492 69.25L350.551 97.75L377.795 82.1288Z" fill="#12273A"/>
<path d="M377.794 87.0625L349.305 103.532V126.25L377.794 87.0625Z" fill="#12202E"/>
<path d="M322 87.0625L349.303 103.532V126.25L322 87.0625Z" fill="#385674"/>
<path d="M450.681 84.1015C445.209 103.132 446.774 123.497 455.089 141.469C463.404 159.44 477.913 173.816 495.96 181.964C514.008 190.113 534.387 191.489 553.366 185.841C572.345 180.193 588.656 167.899 599.311 151.208C609.967 134.518 614.256 114.548 611.392 94.9547C608.528 75.3611 598.703 57.4542 583.716 44.512C568.729 31.5698 549.582 24.4581 529.78 24.4786C509.978 24.4991 490.846 31.6504 475.886 44.6236C476.772 46.0231 477.561 47.482 478.247 48.9898C478.43 49.3776 478.606 49.7902 478.773 50.1868C479.022 50.7677 479.245 51.3414 479.453 51.9239C479.701 52.5985 479.92 53.2783 480.124 53.967C481.138 57.3462 481.644 60.8574 481.626 64.3855C480.053 60.8076 477.951 57.4866 475.39 54.5335C475.337 54.4701 475.277 54.4124 475.212 54.3615C474.959 54.0743 474.707 53.7872 474.442 53.4965C473.309 52.2619 472.099 51.0989 470.821 50.0139C470.712 49.9288 470.606 49.8312 470.496 49.7461C461.177 59.4019 454.373 71.1995 450.681 84.1015Z" fill="#649DD2" fill-opacity="0.1"/>
<path d="M497.276 185.574C495.409 187.017 493.601 188.537 491.854 190.134C477.841 203.003 468.313 220.018 464.664 238.691C464.407 240.03 464.188 241.383 463.995 242.735C461.007 263.575 465.515 284.723 467.717 305.434C467.794 306.142 467.872 306.838 467.936 307.546C469.041 317.259 469.175 327.057 468.335 336.796C467.448 345.596 465.603 354.272 462.836 362.672C457.255 379.427 448.334 394.877 436.612 408.086C424.902 421.394 410.433 431.99 394.212 439.139C391.958 440.118 389.987 436.782 392.267 435.803C394.289 434.915 396.298 433.987 398.269 432.996C413.964 424.971 427.721 413.623 438.583 399.74C449.463 385.965 457.307 370.045 461.599 353.025C463.771 344.41 464.925 335.57 465.038 326.686C465.077 320.668 464.793 314.653 464.188 308.667C463.699 303.437 463.029 298.208 462.359 292.992C460.234 276.635 458.096 260.02 460.054 243.701C460.654 238.586 461.706 233.535 463.196 228.606C468.72 210.508 479.656 194.537 494.533 182.844C496.478 181.324 499.234 184.042 497.276 185.574Z" fill="#24435F"/>
<path d="M361.9 232.872C357.182 221.491 348.34 211.906 340.553 202.068C331.085 190.08 311.599 195.61 310.325 210.823C319.063 213.696 320.198 226.316 310.203 228.044C312.755 255.581 330.327 280.975 354.754 293.737L366.835 271.164C368.467 258.312 366.039 242.847 361.9 232.872Z" fill="#24435F"/>
<path d="M366.832 271.219C366.966 270.952 367.101 270.686 367.236 270.42L366.838 271.164L366.832 271.219Z" fill="#2F2E41"/>
<path d="M453.349 329.47C448.632 318.089 439.789 308.504 432.002 298.665C422.534 286.677 403.048 292.208 401.774 307.421C410.512 310.293 411.647 322.914 401.652 324.642C404.204 352.179 421.776 377.572 446.203 390.335L458.284 367.762C459.917 354.91 457.488 339.445 453.349 329.47Z" fill="#24435F"/>
<path d="M483.918 299.612C493.544 307.301 505.915 311.427 517.483 316.285C531.562 322.214 545.958 307.964 539.73 294.026C530.691 295.728 523.605 285.223 531.524 278.885C515.997 256 488.35 242.244 460.797 242.858L461.113 268.458C465.887 280.502 475.479 292.874 483.918 299.612Z" fill="#24435F"/>
<path d="M249.62 300.899C239.995 308.588 227.624 312.714 216.055 317.572C201.977 323.501 187.581 309.251 193.809 295.313C202.848 297.015 209.934 286.51 202.015 280.172C217.542 257.287 245.189 243.531 272.742 244.145L272.426 269.745C267.652 281.789 258.06 294.161 249.62 300.899Z" fill="#24435F"/>
<path d="M458.277 367.816C458.411 367.55 458.546 367.283 458.682 367.018L458.283 367.762L458.277 367.816Z" fill="#2F2E41"/>
<path d="M603.993 441.657L0.834851 442C0.613213 441.999 0.400877 441.859 0.244381 441.61C0.0878859 441.36 0 441.023 0 440.671C0 440.32 0.0878859 439.982 0.244381 439.733C0.400877 439.484 0.613213 439.344 0.834851 439.343L603.993 439C604.215 439 604.428 439.14 604.585 439.389C604.742 439.638 604.83 439.976 604.83 440.329C604.83 440.681 604.742 441.019 604.585 441.268C604.428 441.517 604.215 441.657 603.993 441.657Z" fill="#506C87" fill-opacity="0.51"/>
<path d="M546.142 62.9221L503.317 96.4936L524.238 121.925L546.142 62.9221Z" fill="#385674"/>
<path d="M555.593 115.99L545.121 62.541L523.218 121.544L555.593 115.99Z" fill="#12202E"/>
<path d="M503.405 96.2625L534.583 94.0962L524.241 121.924L503.405 96.2625Z" fill="#1B3C5A"/>
<path d="M555.694 115.717L534.613 94.1094L524.709 120.833L555.694 115.717Z" fill="#12273A"/>
<path d="M553.971 120.341L521.522 125.816L513.583 147.102L553.971 120.341Z" fill="#12202E"/>
<path d="M501.695 100.842L521.521 125.814L513.582 147.1L501.695 100.842Z" fill="#385674"/>
</svg>
